<svg width="20" height="20" viewBox="0 0 20 20" fill="none" xmlns="http://www.w3.org/2000/svg">
<path fill-rule="evenodd" clip-rule="evenodd" d="M15.6248 5.62638H13.1248V5.20971C13.1248 4.76768 12.9492 4.34376 12.6367 4.0312C12.3241 3.71864 11.9002 3.54305 11.4582 3.54305H8.33317C7.89114 3.54305 7.46722 3.71864 7.15466 4.0312C6.8421 4.34376 6.6665 4.76768 6.6665 5.20971V5.62638H4.1665C4.00074 5.62638 3.84177 5.69223 3.72456 5.80944C3.60735 5.92665 3.5415 6.08562 3.5415 6.25138C3.5415 6.41714 3.60735 6.57611 3.72456 6.69332C3.84177 6.81053 4.00074 6.87638 4.1665 6.87638H4.4665L5.83317 16.5764C5.85157 16.7266 5.92458 16.8648 6.0383 16.9647C6.15201 17.0646 6.29849 17.1192 6.44984 17.118H13.3332C13.4845 17.1192 13.631 17.0646 13.7447 16.9647C13.8584 16.8648 13.9314 16.7266 13.9498 16.5764L15.3248 6.87638H15.6248C15.7906 6.87638 15.9496 6.81053 16.0668 6.69332C16.184 6.57611 16.2498 6.41714 16.2498 6.25138C16.2498 6.08562 16.184 5.92665 16.0668 5.80944C15.9496 5.69223 15.7906 5.62638 15.6248 5.62638ZM7.9165 5.20971C7.91864 5.09987 7.96322 4.99513 8.0409 4.91744C8.11859 4.83976 8.22333 4.79518 8.33317 4.79305H11.4582C11.568 4.79518 11.6728 4.83976 11.7504 4.91744C11.8281 4.99513 11.8727 5.09987 11.8748 5.20971V5.62638H7.9165V5.20971ZM6.9665 15.8347L5.72484 6.87638H7.19984L8.48317 15.8347H6.9665ZM12.7998 15.8347H9.7165L8.45817 6.87638H14.0665L12.7998 15.8347Z" fill="#1D2433" fill-opacity="0.75"/>
</svg>
