<svg width="20" height="20" viewBox="0 0 20 20" fill="none" xmlns="http://www.w3.org/2000/svg">
<path fill-rule="evenodd" clip-rule="evenodd" d="M9.72238 4.16667C8.95532 4.16667 8.3335 4.7885 8.3335 5.55556C8.3335 6.32262 8.95532 6.94445 9.72238 6.94445C10.4894 6.94445 11.1113 6.32262 11.1113 5.55556C11.1113 4.7885 10.4894 4.16667 9.72238 4.16667ZM9.72238 8.61119C8.95532 8.61119 8.3335 9.23302 8.3335 10.0001C8.3335 10.7671 8.95532 11.389 9.72238 11.389C10.4894 11.389 11.1113 10.7671 11.1113 10.0001C11.1113 9.23302 10.4894 8.61119 9.72238 8.61119ZM8.3335 14.8611C8.3335 14.0941 8.95532 13.4722 9.72238 13.4722C10.4894 13.4722 11.1113 14.0941 11.1113 14.8611C11.1113 15.6282 10.4894 16.25 9.72238 16.25C8.95532 16.25 8.3335 15.6282 8.3335 14.8611Z" fill="#3D8AF6"/>
</svg>
