<svg width="21" height="20" viewBox="0 0 21 20" fill="none" xmlns="http://www.w3.org/2000/svg">
<path fill-rule="evenodd" clip-rule="evenodd" d="M9.10742 3.83213C10.4367 3.53181 11.8274 3.66921 13.0721 4.22385C13.3874 4.36434 13.7569 4.22263 13.8974 3.90733C14.0379 3.59203 13.8962 3.22255 13.5809 3.08206C12.0899 2.41772 10.4241 2.25314 8.83195 2.61287C7.23979 2.97259 5.80656 3.83736 4.74603 5.07818C3.68549 6.319 3.05447 7.86941 2.94707 9.49816C2.83967 11.1269 3.26165 12.7468 4.15007 14.1161C5.03849 15.4854 6.34576 16.5309 7.8769 17.0966C9.40803 17.6622 11.081 17.7178 12.6463 17.255C14.2116 16.7922 15.5854 15.8358 16.5627 14.5284C17.5401 13.2211 18.0686 11.6325 18.0696 10.0002V9.36129C18.0696 9.01611 17.7897 8.73629 17.4446 8.73629C17.0994 8.73629 16.8196 9.01611 16.8196 9.36129V9.99982C16.8188 11.3626 16.3775 12.6885 15.5616 13.78C14.7456 14.8715 13.5987 15.6699 12.2919 16.0563C10.9851 16.4427 9.58838 16.3963 8.31009 15.924C7.0318 15.4518 5.94041 14.579 5.1987 13.4357C4.45699 12.2925 4.1047 10.9402 4.19436 9.58041C4.28403 8.22062 4.81084 6.92625 5.69624 5.89033C6.58164 4.85441 7.77819 4.13246 9.10742 3.83213ZM17.8867 4.8863C18.1307 4.6421 18.1305 4.24637 17.8863 4.00242C17.6421 3.75846 17.2464 3.75866 17.0024 4.00286L10.4999 10.5119L8.85873 8.87069C8.61465 8.62662 8.21892 8.62662 7.97484 8.87069C7.73076 9.11477 7.73076 9.5105 7.97484 9.75458L10.0582 11.8379C10.1754 11.9552 10.3345 12.021 10.5003 12.021C10.6661 12.0209 10.8251 11.955 10.9423 11.8377L17.8867 4.8863Z" fill="#1D2433" fill-opacity="0.75"/>
</svg>
