<svg width="20" height="20" viewBox="0 0 20 20" fill="none" xmlns="http://www.w3.org/2000/svg">
<path fill-rule="evenodd" clip-rule="evenodd" d="M10.0001 3.68052C6.50998 3.68052 3.68066 6.50983 3.68066 9.99997C3.68066 13.4901 6.50998 16.3194 10.0001 16.3194C13.4902 16.3194 16.3196 13.4901 16.3196 9.99997C16.3196 6.50983 13.4902 3.68052 10.0001 3.68052ZM2.43066 9.99997C2.43066 5.81948 5.81962 2.43052 10.0001 2.43052C14.1806 2.43052 17.5696 5.81948 17.5696 9.99997C17.5696 14.1805 14.1806 17.5694 10.0001 17.5694C5.81962 17.5694 2.43066 14.1805 2.43066 9.99997ZM10 9.375C10.3452 9.375 10.625 9.65482 10.625 10V12.7778C10.625 13.123 10.3452 13.4028 10 13.4028C9.65486 13.4028 9.37504 13.123 9.37504 12.7778V10C9.37504 9.65482 9.65486 9.375 10 9.375ZM10 6.38875C9.5398 6.38875 9.16671 6.76185 9.16671 7.22209C9.16671 7.68232 9.5398 8.05542 10 8.05542H10.007C10.4672 8.05542 10.8403 7.68232 10.8403 7.22209C10.8403 6.76185 10.4672 6.38875 10.007 6.38875H10Z" fill="#1D2433" fill-opacity="0.75"/>
</svg>
